HIERARCHY
ROOT Hips
{
  OFFSET 179.979 97.3047 303.174
  CHANNELS 6 Xposition Yposition Zposition Zrotation Xrotation Yrotation
  JOINT Spine
  {
    OFFSET 0.000859786 9.92346 -1.22733
    CHANNELS 3 Zrotation Xrotation Yrotation
    JOINT Spine1
    {
      OFFSET 0 11.732 0
      CHANNELS 3 Zrotation Xrotation Yrotation
      JOINT Spine2
      {
        OFFSET 0 13.4588 0
        CHANNELS 3 Zrotation Xrotation Yrotation
        JOINT Neck
        {
          OFFSET 2.54812e-05 15.0278 0.877907
          CHANNELS 3 Zrotation Xrotation Yrotation
          JOINT Head
          {
            OFFSET 0 10.3218 3.14243
            CHANNELS 3 Zrotation Xrotation Yrotation
            End Site
            {
              OFFSET 0 0 0
            }
          }
        }
        JOINT LeftShoulder
        {
          OFFSET 6.10582 9.10629 0.757062
          CHANNELS 3 Zrotation Xrotation Yrotation
          JOINT LeftArm
          {
            OFFSET 0 12.9223 0
            CHANNELS 3 Zrotation Xrotation Yrotation
            JOINT LeftForeArm
            {
              OFFSET 0 27.4047 0
              CHANNELS 3 Zrotation Xrotation Yrotation
              JOINT LeftHand
              {
                OFFSET -1.28204e-05 27.6145 0
                CHANNELS 3 Zrotation Xrotation Yrotation
                End Site
                {
                  OFFSET 0 0 0
                }
              }
            }
          }
        }
        JOINT RightShoulder
        {
          OFFSET -6.1057 9.10638 0.757076
          CHANNELS 3 Zrotation Xrotation Yrotation
          JOINT RightArm
          {
            OFFSET 0 12.9223 0
            CHANNELS 3 Zrotation Xrotation Yrotation
            JOINT RightForeArm
            {
              OFFSET 0 27.4047 0
              CHANNELS 3 Zrotation Xrotation Yrotation
              JOINT RightHand
              {
                OFFSET 1.28428e-05 27.6145 1.44975e-05
                CHANNELS 3 Zrotation Xrotation Yrotation
                End Site
                {
                  OFFSET 0 0 0
                }
              }
            }
          }
        }
      }
    }
  }
  JOINT LeftUpLeg
  {
    OFFSET 9.12387 -6.65719 -0.0554031
    CHANNELS 3 Zrotation Xrotation Yrotation
    JOINT LeftLeg
    {
      OFFSET 0 40.5994 0
      CHANNELS 3 Zrotation Xrotation Yrotation
      JOINT LeftFoot
      {
        OFFSET 0 42.099 0
        CHANNELS 3 Zrotation Xrotation Yrotation
        JOINT LeftToeBase
        {
          OFFSET 0 15.7216 0
          CHANNELS 3 Zrotation Xrotation Yrotation
          End Site
          {
            OFFSET 0 0 0
          }
        }
      }
    }
  }
  JOINT RightUpLeg
  {
    OFFSET -9.12503 -6.6556 -0.0553527
    CHANNELS 3 Zrotation Xrotation Yrotation
    JOINT RightLeg
    {
      OFFSET 0 40.5994 0
      CHANNELS 3 Zrotation Xrotation Yrotation
      JOINT RightFoot
      {
        OFFSET 0 42.099 0
        CHANNELS 3 Zrotation Xrotation Yrotation
        JOINT RightToeBase
        {
          OFFSET 0 15.7216 0
          CHANNELS 3 Zrotation Xrotation Yrotation
          End Site
          {
            OFFSET 0 0 0
          }
        }
      }
    }
  }
}
MOTION
Frames:	8
Frame Time:	0.0333333
-206.108 98.4562 -162.23 0.344066 -6.08902 -1.64076 -0.0981229 -5.8886 0.10224 -0.237508 2.16977 0.199612 -0.26171 8.76423 0.20157 1.29548 20.8108 0.512087 -1.11747 -14.2304 1.19028 -88.549 -21.3124 89.6663 24.414 -6.93655 1.48977 2.5819 -12.4915 -0.489319 -14.89 2.14795 4.83826 92.0587 -12.9641 -90.5025 -14.4088 -3.03036 3.73465 -10.5569 -17.6835 0.758536 16.3522 -4.57186 -2.43776 -176.304 -8.99652 0.565765 -3.65044 -6.49584 -5.53877 17.1769 75.3507 -16.5374 -0.965268 26.367 -3.60229 175.871 -4.88139 -4.71689 2.51199 -12.5423 2.73197 -9.6005 77.0625 9.40348 0.963561 26.3682 3.55536 
-206.112 98.4562 -162.234 0.343237 -6.089 -1.64858 -0.0981229 -5.8886 0.10224 -0.237516 2.172 0.199613 -0.261718 8.76643 0.201571 1.30538 20.8216 0.532668 -1.12465 -14.2412 1.21696 -88.549 -21.3137 89.6664 24.4023 -6.92987 1.48736 2.58903 -12.4942 -0.489324 -14.8821 2.15165 4.83827 92.062 -12.9642 -90.5018 -14.4183 -3.03305 3.67422 -10.5568 -17.6902 0.758565 16.3442 -4.55494 -2.3979 -176.3 -8.99102 0.571933 -3.65176 -6.50281 -5.54704 17.195 75.3496 -16.5574 -0.965268 26.367 -3.60229 175.874 -4.87827 -4.72315 2.51198 -12.542 2.73197 -9.6005 77.0625 9.40348 0.963561 26.3682 3.55536 
-206.134 98.4563 -162.261 0.338228 -6.08886 -1.6958 -0.0981338 -5.88253 0.102239 -0.237558 2.18401 0.199614 -0.261761 8.77845 0.201577 1.37724 20.8792 0.622357 -1.17263 -14.3017 1.34674 -88.5487 -21.3265 89.667 24.3651 -6.89487 1.47065 2.61995 -12.5121 -0.489358 -14.8166 2.2021 4.83518 92.0716 -12.9642 -90.4996 -14.4912 -3.0122 3.56444 -10.5562 -17.7302 0.758734 16.3381 -4.52281 -2.30944 -176.283 -8.96233 0.581521 -3.65808 -6.54053 -5.58088 17.2656 75.3453 -16.6374 -0.965268 26.367 -3.60229 175.889 -4.85321 -4.75158 2.51693 -12.5539 2.72546 -9.59746 77.0626 9.39718 0.963561 26.3682 3.55536 
-206.155 98.4564 -162.287 0.33521 -6.08877 -1.72426 -0.0981478 -5.87474 0.102238 -0.237612 2.19961 0.199616 -0.261817 8.79404 0.201586 1.46958 20.9347 0.679652 -1.24415 -14.3706 1.45285 -88.5439 -21.3301 89.6689 24.3414 -6.85545 1.45779 2.65111 -12.5327 -0.489397 -14.7725 2.29381 4.90086 92.0818 -12.9643 -90.4973 -14.5659 -2.9686 3.63041 -10.5509 -17.7776 0.763354 16.3719 -4.55584 -2.32981 -176.271 -8.93452 0.595797 -3.66393 -6.5789 -5.60745 17.3173 75.3421 -16.6989 -0.965268 26.367 -3.60229 175.898 -4.8312 -4.75659 2.52317 -12.5679 2.71449 -9.58656 77.063 9.37461 0.963561 26.3682 3.55536 
-206.177 98.4565 -162.314 0.333175 -6.08872 -1.73961 -0.0981628 -5.86638 0.102236 -0.23767 2.21632 0.199619 -0.261876 8.81078 0.201595 1.5403 20.9708 0.708956 -1.29873 -14.4178 1.51858 -88.526 -21.3211 89.6703 24.3344 -6.81257 1.53148 2.65369 -12.5682 -0.489465 -14.7518 2.44918 4.93365 92.0963 -12.9546 -90.4948 -14.5851 -2.92852 3.72147 -10.5709 -17.8258 0.768895 16.4297 -4.61655 -2.39233 -176.261 -8.90676 0.603378 -3.66453 -6.61274 -5.62294 17.3418 75.3405 -16.7326 -0.965268 26.367 -3.60229 175.906 -4.8054 -4.75447 2.53152 -12.5869 2.70642 -9.57514 77.0634 9.35096 0.963561 26.3682 3.55536 
-206.2 98.4566 -162.341 0.332241 -6.08871 -1.74227 -0.0981766 -5.85871 0.102235 -0.237724 2.23173 0.199621 -0.261931 8.82617 0.201603 1.58946 20.9951 0.719649 -1.34161 -14.4431 1.55454 -88.5075 -21.3054 89.6744 24.3211 -6.77917 1.60937 2.66163 -12.6065 -0.489538 -14.7376 2.57767 4.96569 92.1112 -12.9312 -90.4928 -14.5701 -2.89504 3.85139 -10.6012 -17.8679 0.773819 16.4514 -4.64306 -2.49003 -176.251 -8.88304 0.586811 -3.66054 -6.63092 -5.61938 17.3109 75.3327 -16.7089 -0.965268 26.367 -3.60229 175.914 -4.78087 -4.74817 2.54096 -12.6036 2.70302 -9.58042 77.0635 9.34242 0.963561 26.3682 3.55536 
-206.223 98.4568 -162.367 0.33288 -6.08873 -1.73471 -0.0981879 -5.85239 0.102234 -0.237768 2.24433 0.199622 -0.261976 8.83879 0.20161 1.59665 21.019 0.722367 -1.36398 -14.4602 1.56092 -88.4977 -21.2806 89.6762 24.2969 -6.7667 1.65749 2.68916 -12.6374 -0.489803 -14.74 2.62011 4.9711 92.1037 -12.9054 -90.4961 -14.5382 -2.86221 3.99187 -10.6307 -17.8768 0.775796 16.4318 -4.64272 -2.60438 -176.24 -8.85224 0.56336 -3.65141 -6.65454 -5.60394 17.2467 75.3274 -16.6536 -0.965268 26.367 -3.60229 175.925 -4.75756 -4.73696 2.54973 -12.6176 2.70309 -9.59471 77.0633 9.33935 0.963561 26.3682 3.55536 
-206.245 98.4569 -162.393 0.335208 -6.08877 -1.72275 -0.0981973 -5.84715 0.102233 -0.23801 2.25477 0.204906 -0.262227 8.84919 0.207069 1.55345 21.0428 0.721977 -1.35303 -14.4656 1.54028 -88.4882 -21.2514 89.6784 24.2775 -6.77265 1.72744 2.69185 -12.6492 -0.490076 -14.7245 2.62532 4.94264 92.0648 -12.8692 -90.5066 -14.4757 -2.82125 4.18374 -10.6824 -17.8454 0.776802 16.3951 -4.62891 -2.73652 -176.229 -8.81745 0.54631 -3.6408 -6.68286 -5.58916 17.1836 75.324 -16.6013 -0.965268 26.367 -3.60229 175.938 -4.73363 -4.72565 2.55724 -12.6322 2.70579 -9.62673 77.0628 9.35113 0.963561 26.3682 3.55536 
